<?xml version="1.0" encoding="utf-8"?>
<!-- Generator: Adobe Illustrator 24.2.3, SVG Export Plug-In . SVG Version: 6.00 Build 0)  -->
<svg version="1.2" baseProfile="tiny" id="Layer_1" xmlns="http://www.w3.org/2000/svg" xmlns:xlink="http://www.w3.org/1999/xlink"
	 x="0px" y="0px" viewBox="0 0 2720 411" overflow="visible" xml:space="preserve">
<g>
	<path d="M168.23,157.76h24.09v135.5c0,15.06,0,36.47-13.38,54.54c-10.37,14.05-29.44,25.76-55.54,25.76
		c-23.75,0-40.15-9.37-49.52-18.74S55.81,330.41,55.81,310h23.75c0,11.71,4.68,22.08,10.71,28.77
		c10.04,11.04,22.75,13.38,33.46,13.38c17.06,0,28.77-6.02,36.8-19.41c7.03-11.38,7.7-23.76,7.7-35.47v-20.08
		c-8.03,10.37-23.09,23.42-47.51,23.42c-20.41,0-36.8-8.03-47.51-18.74c-9.37-9.37-20.07-26.77-20.07-54.87
		c0-27.1,10.04-43.83,20.07-53.87c11.71-11.38,28.77-18.74,47.51-18.74c20.41,0,36.47,8.7,47.51,23.09V157.76z M91.94,188.88
		c-11.71,12.04-14.05,26.77-14.05,38.14c0,12.04,2.34,28.44,15.73,40.82c7.7,7.03,17.06,11.38,29.78,11.38s22.75-4.01,30.45-11.71
		c9.37-9.03,15.73-23.75,15.73-40.15s-6.02-30.78-14.72-39.15c-7.7-7.7-19.07-12.38-31.45-12.38
		C108.67,175.83,98.63,182.19,91.94,188.88z"/>
	<path d="M261.91,238.73c0,9.7,0,21.08,6.69,29.78c3.68,4.68,11.04,10.71,24.42,10.71s20.74-6.02,24.42-10.71
		c6.69-8.7,6.69-20.08,6.69-29.78v-80.97h24.09v83.65c0,17.06-1.67,29.78-12.71,41.82c-12.38,13.05-28.77,17.4-42.49,17.4
		s-30.11-4.35-42.49-17.4c-11.04-12.04-12.71-24.76-12.71-41.82v-83.65h24.09V238.73z"/>
	<path d="M405.78,88.17c9.37,0,17.06,7.7,17.06,17.06s-7.7,17.06-17.06,17.06s-17.06-7.7-17.06-17.06S396.41,88.17,405.78,88.17z
		 M417.82,157.76v138.85h-24.09V157.76H417.82z"/>
	<path d="M487.41,52.71v243.91h-24.09V52.71H487.41z"/>
	<path d="M532.92,52.71h24.09v121.12c4.35-5.69,16.73-19.41,39.82-19.41c16.39,0,31.45,6.69,39.81,19.07
		c7.03,10.37,8.03,21.75,8.03,37.14v85.99h-24.09V211.3c0-8.36-0.67-18.07-6.36-25.43c-4.68-6.02-12.04-10.04-22.75-10.04
		c-8.36,0-17.4,2.34-24.42,10.71c-9.37,11.04-10.04,27.44-10.04,37.47v72.6h-24.09V52.71z"/>
	<path d="M809.95,261.15c-4.02,7.7-10.04,16.06-17.06,22.42c-12.71,11.38-28.44,17.06-46.17,17.06c-33.46,0-68.59-21.08-68.59-72.6
		c0-41.49,25.43-73.61,67.25-73.61c27.1,0,44.17,13.38,52.53,25.43c8.7,12.38,13.72,33.79,13.05,52.19H702.88
		c0.33,28.77,20.07,47.18,44.16,47.18c11.38,0,20.41-3.35,28.44-10.04c6.36-5.35,11.38-12.38,14.39-19.07L809.95,261.15z
		 M786.19,211.97c-4.01-21.75-20.41-36.13-40.82-36.13s-37.14,15.39-40.82,36.13H786.19z"/>
	<path d="M847.76,157.76h24.09v15.06c2.34-3.68,12.71-18.4,31.45-18.4c7.36,0,15.39,2.68,21.41,5.69l-11.38,21.75
		c-5.35-3.68-10.37-4.68-14.05-4.68c-9.7,0-15.72,4.02-19.41,8.7c-4.01,5.35-8.03,14.72-8.03,37.47v73.27h-24.09V157.76z"/>
	<path d="M946.79,157.76h24.09v14.72c7.7-11.38,19.74-18.07,34.46-18.07c25.09,0,35.13,17.73,37.81,22.42
		c13.38-21.08,32.45-22.42,41.82-22.42c41.15,0,45.17,34.46,45.17,54.2v87.99h-24.09V212.3c0-15.72-2.01-36.47-24.76-36.47
		c-27.77,0-30.78,26.77-30.78,43.5v77.29h-24.09v-82.31c0-9.7,0.33-38.48-25.09-38.48c-27.44,0-30.45,28.44-30.45,45.17v75.62
		h-24.09V157.76z"/>
	<path d="M1299.11,261.15c-4.02,7.7-10.04,16.06-17.06,22.42c-12.71,11.38-28.44,17.06-46.17,17.06c-33.46,0-68.59-21.08-68.59-72.6
		c0-41.49,25.43-73.61,67.25-73.61c27.1,0,44.17,13.38,52.53,25.43c8.7,12.38,13.72,33.79,13.05,52.19h-108.07
		c0.33,28.77,20.07,47.18,44.16,47.18c11.38,0,20.41-3.35,28.44-10.04c6.36-5.35,11.38-12.38,14.39-19.07L1299.11,261.15z
		 M1275.35,211.97c-4.01-21.75-20.41-36.13-40.82-36.13s-37.14,15.39-40.82,36.13H1275.35z"/>
	<path d="M1361,373.57h-24.09v-215.8H1361v19.41c16.39-20.41,37.47-22.75,47.51-22.75c43.5,0,67.59,36.13,67.59,73.61
		c0,38.14-24.43,72.6-66.58,72.6c-22.42,0-38.14-10.04-48.51-23.42V373.57z M1451.34,228.03c0-34.13-23.09-52.19-45.5-52.19
		c-22.42,0-46.17,18.4-46.17,51.86c0,28.44,18.07,51.53,46.51,51.53C1434.28,279.22,1451.34,255.8,1451.34,228.03z"/>
	<path d="M1619.3,157.76h24.09v138.85h-24.09v-19.41c-8.03,10.37-23.09,23.42-47.51,23.42c-35.13,0-67.59-24.76-67.59-73.61
		c0-47.84,32.12-72.6,67.59-72.6c26.77,0,41.15,14.72,47.51,23.09V157.76z M1528.96,227.02c0,29.78,16.73,52.19,45.5,52.19
		c29.44,0,46.17-24.42,46.17-51.86c0-35.8-24.76-51.53-46.17-51.53C1550.71,175.83,1528.96,193.23,1528.96,227.02z"/>
	<path d="M1700.94,88.17c9.37,0,17.06,7.7,17.06,17.06s-7.7,17.06-17.06,17.06c-9.37,0-17.06-7.7-17.06-17.06
		S1691.57,88.17,1700.94,88.17z M1712.98,157.76v138.85h-24.09V157.76H1712.98z"/>
	<path d="M1765.17,157.76l41.49,93.68l41.49-93.68h26.77l-68.25,147.88l-68.25-147.88H1765.17z"/>
	<path d="M2006.74,157.76h24.09v138.85h-24.09v-19.41c-8.03,10.37-23.09,23.42-47.51,23.42c-35.13,0-67.59-24.76-67.59-73.61
		c0-47.84,32.12-72.6,67.59-72.6c26.77,0,41.15,14.72,47.51,23.09V157.76z M1916.41,227.02c0,29.78,16.73,52.19,45.5,52.19
		c29.44,0,46.17-24.42,46.17-51.86c0-35.8-24.76-51.53-46.17-51.53C1938.15,175.83,1916.41,193.23,1916.41,227.02z"/>
	<path d="M2091.72,266.5c9.03,0,16.73,7.7,16.73,16.73c0,9.03-7.7,16.73-16.73,16.73s-16.73-7.7-16.73-16.73
		C2075,274.2,2082.69,266.5,2091.72,266.5z"/>
	<path d="M2261.36,196.58c-12.71-16.06-31.12-20.74-43.5-20.74c-25.76,0-49.18,18.07-49.18,51.86c0,33.79,24.09,51.53,48.85,51.53
		c14.39,0,32.12-6.36,44.83-21.75v28.77c-15.06,11.04-31.12,14.39-44.16,14.39c-43.16,0-74.28-30.78-74.28-72.6
		c0-42.49,31.45-73.61,74.28-73.61c22.08,0,36.47,8.7,43.16,13.38V196.58z"/>
	<path d="M2290.46,227.69c0-42.16,31.12-73.27,73.61-73.27s73.61,31.12,73.61,73.27c0,42.16-31.45,72.94-73.61,72.94
		S2290.46,269.85,2290.46,227.69z M2315.22,227.69c0,34.13,24.09,51.53,48.85,51.53c25.09,0,48.85-17.73,48.85-51.53
		c0-34.13-23.42-51.86-48.85-51.86S2315.22,193.9,2315.22,227.69z"/>
	<path d="M2474.48,157.76h24.09v14.72c7.7-11.38,19.74-18.07,34.46-18.07c25.09,0,35.13,17.73,37.81,22.42
		c13.38-21.08,32.46-22.42,41.82-22.42c41.15,0,45.17,34.46,45.17,54.2v87.99h-24.09V212.3c0-15.72-2.01-36.47-24.76-36.47
		c-27.77,0-30.78,26.77-30.78,43.5v77.29h-24.09v-82.31c0-9.7,0.33-38.48-25.09-38.48c-27.44,0-30.45,28.44-30.45,45.17v75.62
		h-24.09V157.76z"/>
</g>
</svg>
