<svg xmlns="http://www.w3.org/2000/svg" width="579" height="71.324" viewBox="0 0 579 71.324"><g transform="translate(-53.14 -52.71)"><path d="M78.724,155.139h5.355v30.12c0,3.348,0,8.107-2.974,12.124-2.305,3.123-6.544,5.726-12.346,5.726a15.287,15.287,0,0,1-11.008-4.166,13.9,13.9,0,0,1-4.017-9.963h5.279a9.706,9.706,0,0,0,2.381,6.4,9.558,9.558,0,0,0,7.438,2.974c3.792,0,6.4-1.338,8.18-4.315,1.563-2.53,1.712-5.282,1.712-7.885v-4.464a13.022,13.022,0,0,1-10.561,5.206A14.783,14.783,0,0,1,57.6,182.728c-2.083-2.083-4.461-5.951-4.461-12.2,0-6.024,2.232-9.743,4.461-11.975a15.212,15.212,0,0,1,10.561-4.166,12.835,12.835,0,0,1,10.561,5.133Zm-16.959,6.918a11.75,11.75,0,0,0-3.123,8.478,11.9,11.9,0,0,0,3.5,9.074,9.336,9.336,0,0,0,6.62,2.53,9.133,9.133,0,0,0,6.769-2.6,12.508,12.508,0,0,0,3.5-8.925,12.2,12.2,0,0,0-3.272-8.7,9.893,9.893,0,0,0-6.991-2.752A9.572,9.572,0,0,0,61.765,162.057Z" transform="translate(0 -79.077)"/><path d="M243.175,175.759c0,2.156,0,4.686,1.487,6.62a7.379,7.379,0,0,0,10.857,0c1.487-1.934,1.487-4.464,1.487-6.62v-18h5.355v18.595c0,3.792-.371,6.62-2.825,9.3a13.466,13.466,0,0,1-18.89,0c-2.454-2.676-2.825-5.5-2.825-9.3V157.76h5.355Z" transform="translate(-143.627 -81.698)"/><path d="M392.512,88.17a3.792,3.792,0,1,1-3.792,3.792A3.809,3.809,0,0,1,392.512,88.17Zm2.676,15.469V134.5h-5.355V103.639Z" transform="translate(-260.983 -27.578)"/><path d="M468.675,52.71v54.219H463.32V52.71Z" transform="translate(-319.001 0)"/><path d="M532.92,52.71h5.355V79.634a10.889,10.889,0,0,1,8.852-4.315,10.467,10.467,0,0,1,8.849,4.239c1.563,2.305,1.785,4.835,1.785,8.256v19.115h-5.355V87.963c0-1.858-.149-4.017-1.414-5.653a6.056,6.056,0,0,0-5.057-2.232,6.743,6.743,0,0,0-5.428,2.381c-2.083,2.454-2.232,6.1-2.232,8.329v16.138H532.92V52.71Z" transform="translate(-373.129 0)"/><path d="M707.432,178.145a18.511,18.511,0,0,1-3.792,4.984,14.976,14.976,0,0,1-10.263,3.792c-7.438,0-15.247-4.686-15.247-16.138,0-9.223,5.653-16.363,14.949-16.363a13.806,13.806,0,0,1,11.677,5.653c1.934,2.752,3.05,7.511,2.9,11.6H683.632c.073,6.4,4.461,10.488,9.816,10.488a9.385,9.385,0,0,0,6.322-2.232,12.283,12.283,0,0,0,3.2-4.239Zm-5.282-10.932c-.891-4.835-4.537-8.031-9.074-8.031A9.38,9.38,0,0,0,684,167.213Z" transform="translate(-486.06 -79.101)"/><path d="M847.752,155.162h5.355v3.348a8.575,8.575,0,0,1,6.991-4.09,11.31,11.31,0,0,1,4.759,1.265l-2.53,4.835a5.505,5.505,0,0,0-3.123-1.04,5.192,5.192,0,0,0-4.315,1.934c-.891,1.189-1.785,3.272-1.785,8.329V186.03H847.75V155.162Z" transform="translate(-617.975 -79.101)"/><path d="M946.79,155.155h5.355v3.272a8.964,8.964,0,0,1,7.66-4.017,9.242,9.242,0,0,1,8.4,4.984,10.3,10.3,0,0,1,9.3-4.984c9.147,0,10.041,7.66,10.041,12.048v19.559h-5.355V167.278c0-3.494-.447-8.107-5.5-8.107-6.173,0-6.842,5.951-6.842,9.67v17.181h-5.355v-18.3c0-2.156.073-8.554-5.577-8.554-6.1,0-6.769,6.322-6.769,10.041v16.81H946.79Z" transform="translate(-694.999 -79.093)"/><path d="M1196.592,178.145a18.511,18.511,0,0,1-3.792,4.984,14.976,14.976,0,0,1-10.263,3.792c-7.438,0-15.247-4.686-15.247-16.138,0-9.223,5.653-16.363,14.949-16.363a13.806,13.806,0,0,1,11.677,5.653c1.934,2.752,3.05,7.511,2.9,11.6h-24.023c.073,6.4,4.461,10.488,9.816,10.488a9.384,9.384,0,0,0,6.322-2.232,12.282,12.282,0,0,0,3.2-4.239Zm-5.282-10.932c-.891-4.835-4.537-8.031-9.074-8.031a9.38,9.38,0,0,0-9.074,8.031Z" transform="translate(-866.484 -79.101)"/><path d="M1342.265,203.143h-5.355v-47.97h5.355v4.315a13.27,13.27,0,0,1,10.561-5.057c9.67,0,15.025,8.031,15.025,16.363,0,8.478-5.431,16.138-14.8,16.138a13.1,13.1,0,0,1-10.783-5.206v21.418Zm20.082-32.352c0-7.587-5.133-11.6-10.115-11.6s-10.263,4.09-10.263,11.528c0,6.322,4.017,11.455,10.339,11.455C1358.555,182.17,1362.347,176.964,1362.347,170.791Z" transform="translate(-998.399 -79.109)"/><path d="M1529.786,155.155h5.355V186.02h-5.355v-4.315a13.022,13.022,0,0,1-10.561,5.206c-7.809,0-15.025-5.5-15.025-16.363,0-10.634,7.14-16.138,15.025-16.138a12.766,12.766,0,0,1,10.561,5.133Zm-20.082,15.4c0,6.62,3.719,11.6,10.114,11.6,6.544,0,10.263-5.428,10.263-11.528,0-7.958-5.5-11.455-10.263-11.455C1514.539,159.171,1509.7,163.039,1509.7,170.551Z" transform="translate(-1128.502 -79.093)"/><path d="M1687.672,88.17a3.792,3.792,0,1,1-3.792,3.792A3.809,3.809,0,0,1,1687.672,88.17Zm2.676,15.469V134.5h-5.355V103.639Z" transform="translate(-1268.24 -27.578)"/><path d="M1744.366,157.76l9.223,20.824,9.223-20.824h5.951l-15.171,32.872L1738.42,157.76h5.946Z" transform="translate(-1310.657 -81.698)"/><path d="M1917.226,155.155h5.355V186.02h-5.355v-4.315a13.022,13.022,0,0,1-10.561,5.206c-7.809,0-15.025-5.5-15.025-16.363,0-10.634,7.14-16.138,15.025-16.138a12.766,12.766,0,0,1,10.561,5.133Zm-20.079,15.4c0,6.62,3.719,11.6,10.114,11.6,6.544,0,10.263-5.428,10.263-11.528,0-7.958-5.5-11.455-10.263-11.455C1901.979,159.171,1897.146,163.039,1897.146,170.551Z" transform="translate(-1429.818 -79.093)"/><path d="M2078.709,266.5a3.719,3.719,0,1,1-3.719,3.719A3.78,3.78,0,0,1,2078.709,266.5Z" transform="translate(-1572.41 -166.266)"/><path d="M2170.026,163.8a12.45,12.45,0,0,0-9.67-4.61c-5.726,0-10.932,4.017-10.932,11.528s5.355,11.455,10.859,11.455a13.155,13.155,0,0,0,9.965-4.835v6.4a16.49,16.49,0,0,1-9.816,3.2c-9.594,0-16.512-6.842-16.512-16.138,0-9.445,6.991-16.363,16.512-16.363a16.353,16.353,0,0,1,9.594,2.974Z" transform="translate(-1626.018 -79.108)"/><path d="M2290.46,170.707c0-9.372,6.918-16.287,16.363-16.287s16.363,6.918,16.363,16.287-6.991,16.214-16.363,16.214S2290.46,180.079,2290.46,170.707Zm5.5,0c0,7.587,5.355,11.455,10.859,11.455,5.577,0,10.859-3.941,10.859-11.455,0-7.587-5.206-11.528-10.859-11.528S2295.964,163.2,2295.964,170.707Z" transform="translate(-1739.983 -79.101)"/><path d="M2474.48,155.155h5.355v3.272a8.964,8.964,0,0,1,7.66-4.017,9.243,9.243,0,0,1,8.405,4.984,10.3,10.3,0,0,1,9.3-4.984c9.147,0,10.041,7.66,10.041,12.048v19.559h-5.355V167.278c0-3.494-.447-8.107-5.5-8.107-6.173,0-6.842,5.951-6.842,9.67v17.181h-5.355v-18.3c0-2.156.073-8.554-5.577-8.554-6.1,0-6.769,6.322-6.769,10.041v16.81h-5.355Z" transform="translate(-1883.097 -79.093)"/></g></svg>