<svg xmlns="http://www.w3.org/2000/svg" width="30" height="26.187" viewBox="0 0 30 26.187"><g transform="translate(0 -32.54)"><g transform="translate(0 32.54)"><path d="M17.214,39.587c3.416-2.051,5.257.84,3.506,4.108s-3.366,5.421-4.2,5.421-1.468-2.2-2.428-6.022c-.984-3.958-.984-11.094-5.1-10.284C5.1,33.578,0,39.672,0,39.672l1.211,1.6s2.512-1.982,3.349-1,4.056,12.95,5.117,15.161c.926,1.937,3.5,4.492,6.305,2.67,2.835-1.834,12.193-9.825,13.869-19.28C31.524,29.384,18.571,31.36,17.214,39.587Z" transform="translate(0 -32.54)"/></g></g></svg>